<svg id="Layer_1" data-name="Layer 1" xmlns="http://www.w3.org/2000/svg" viewBox="0 0 299.58 753.65"><defs><style>.cls-1{fill:#489a6c;}</style></defs><title>element</title><path class="cls-1" d="M1067.94,327.41c-1.12.66-2.26,3.06-.57,3.54l3.41-3.11Z" transform="translate(-1014.81 -327.41)"/><path class="cls-1" d="M1072.82,340.5c2.83-.74,6.83-2.55,8.1-6.69-4,2.43-3.42.68-8,3.8-1.68-.48-1.64-2.79-.51-4-1.12.64-1.64-2.25-3.92-.38-.06,4.09,2.12,5.69,6.11,4.88C1074.55,339.25,1073.4,339.89,1072.82,340.5Z" transform="translate(-1014.81 -327.41)"/><path class="cls-1" d="M1184.4,455.44l-.22-1.14A1.82,1.82,0,0,0,1184.4,455.44Z" transform="translate(-1014.81 -327.41)"/><path class="cls-1" d="M1230.89,540.22a1,1,0,0,0-1.17-.64C1230.19,540.1,1230.54,540.46,1230.89,540.22Z" transform="translate(-1014.81 -327.41)"/><path class="cls-1" d="M1228.47,555.73a7.53,7.53,0,0,0,.23-.94C1228.32,555.18,1228.12,555.55,1228.47,555.73Z" transform="translate(-1014.81 -327.41)"/><path class="cls-1" d="M1184.4,455.44c.17,1,.36,1.94.51,2.94C1186.18,457.63,1185,456.64,1184.4,455.44Z" transform="translate(-1014.81 -327.41)"/><path class="cls-1" d="M1097.47,344.74a3.53,3.53,0,0,0-1.9.07,10.52,10.52,0,0,1,1.41.44C1097.14,345.07,1097.28,344.92,1097.47,344.74Z" transform="translate(-1014.81 -327.41)"/><path class="cls-1" d="M1153.63,424.52l-.54-.59a14.84,14.84,0,0,0-1.78.74Z" transform="translate(-1014.81 -327.41)"/><path class="cls-1" d="M1130,401.22c.43.63,3.25-1.92,4.62-2.91-1.4.83-2.32,1-3,.74A11.06,11.06,0,0,0,1130,401.22Z" transform="translate(-1014.81 -327.41)"/><path class="cls-1" d="M1094.28,361.64l-1.07-.16C1093.5,361.5,1093.92,361.63,1094.28,361.64Z" transform="translate(-1014.81 -327.41)"/><path class="cls-1" d="M1168.65,443a4.88,4.88,0,0,0-.85,1.1A3.36,3.36,0,0,0,1168.65,443Z" transform="translate(-1014.81 -327.41)"/><path class="cls-1" d="M1277.33,1049.15c-.24-.13-.41-.16-.62-.26C1277,1049.2,1277.22,1049.36,1277.33,1049.15Z" transform="translate(-1014.81 -327.41)"/><path class="cls-1" d="M1249.62,1080l-.13-.56c-.71-.14-1.4-.28-2.1-.36Z" transform="translate(-1014.81 -327.41)"/><path class="cls-1" d="M1223.84,584.94a1.48,1.48,0,0,0,.08-.13C1223.52,584,1223.57,584.46,1223.84,584.94Z" transform="translate(-1014.81 -327.41)"/><path class="cls-1" d="M1021.64,707.89c1.86-1.6,2.8-.08,3.82,1.19s2.15,2.3,4.24-.08c-.77.17-2.13-1.11-3.62-2S1023,705.8,1021.64,707.89Z" transform="translate(-1014.81 -327.41)"/><path class="cls-1" d="M1097.9,345.67a9.27,9.27,0,0,1,1.16.81A2.36,2.36,0,0,0,1097.9,345.67Z" transform="translate(-1014.81 -327.41)"/><path class="cls-1" d="M1029.7,709h0l.41-.49Z" transform="translate(-1014.81 -327.41)"/><path class="cls-1" d="M1193.81,590a5,5,0,0,0,.63,1.71A3.38,3.38,0,0,0,1193.81,590Z" transform="translate(-1014.81 -327.41)"/><path class="cls-1" d="M1230.81,595.44c-.18.08-.37.16-.55.22C1230.61,595.71,1230.75,595.59,1230.81,595.44Z" transform="translate(-1014.81 -327.41)"/><path class="cls-1" d="M1165.07,594c-.74-.32-1-.83-2-.33a1.74,1.74,0,0,0,.3.46C1163.73,593.66,1164.24,593.41,1165.07,594Z" transform="translate(-1014.81 -327.41)"/><path class="cls-1" d="M1134.75,595.22a7.11,7.11,0,0,0,.63.7c.29-.11.64-.2.94-.31Z" transform="translate(-1014.81 -327.41)"/><path class="cls-1" d="M1310.39,963.66a11.06,11.06,0,0,1-3.61,1c1.38,0,2.07,1.21,2.53,1.74S1310,966.71,1310.39,963.66Z" transform="translate(-1014.81 -327.41)"/><path class="cls-1" d="M1096.21,346.46c.71-.66,1.2-.89,1.69-.79a9.37,9.37,0,0,0-.92-.42A2.21,2.21,0,0,0,1096.21,346.46Z" transform="translate(-1014.81 -327.41)"/><path class="cls-1" d="M1163.38,624l-4.34-.59A15.54,15.54,0,0,0,1163.38,624Z" transform="translate(-1014.81 -327.41)"/><path class="cls-1" d="M1137.55,845.76l1.13,0A.92.92,0,0,0,1137.55,845.76Z" transform="translate(-1014.81 -327.41)"/><path class="cls-1" d="M1146.59,624.27a6.19,6.19,0,0,0-2.51-2.48,3.44,3.44,0,0,0-.43,1C1144.68,623.26,1145.64,623.76,1146.59,624.27Z" transform="translate(-1014.81 -327.41)"/><path class="cls-1" d="M1306.74,964.65h0Z" transform="translate(-1014.81 -327.41)"/><path class="cls-1" d="M1304.77,1000c2-4.36-3.61-4-5.85-6,.45-2.81,1.51-3.08,2.89-2.72s3,1.33,4.6.9a16.43,16.43,0,0,0-1.43-5.75c-.68-1.84-1.25-3.58-.7-4.84.85.06,1.3-.36,2.08.57-1.27-2.53-.45-5.3.15-8.27a18.57,18.57,0,0,0,.44-4.5,7.8,7.8,0,0,0-1.54-4.3,3.32,3.32,0,0,1,1.33-.37,19.32,19.32,0,0,1-6.88-.53c.3-2.1-2.52-4.27.84-4.61-.28,1.26,1,1.55,1.92,2.31l-1.07-2.41c2.42-.73,2.78.09,2.86,1.16s0,2.37,1.72,2.65a26.68,26.68,0,0,0-1-3.68c-.42-1.26-.89-2.5-1.27-3.68-.85-2.39-1.35-4.5-.73-6.24,2.28-.39,2.74,1.73,2.94,3.31s.43,2.73,2.6.41c-.34.93-.68,1.85-1,2.76l-1.16,2.65c7.65-3.52-.86,3.4,7.26.25a19.1,19.1,0,0,0,.54-2.59,15.19,15.19,0,0,0,.06-2.2,16.6,16.6,0,0,0-.6-3.6,26.86,26.86,0,0,1-.74-3.6,22.52,22.52,0,0,1-.12-5.07,3.53,3.53,0,0,0-3.23-.28,3.78,3.78,0,0,1-3.21-.23c-1.44-2.56-1.74-4.41-1.3-6a10.89,10.89,0,0,1,1-2.29c.43-.73.94-1.42,1.43-2.11,1-1.37,2-2.69,2-4.16a3.9,3.9,0,0,0-.65-2.27,6.38,6.38,0,0,0-1-1.18,11.74,11.74,0,0,0-1.62-1.19c-2-.46-4.29-.14-6.23-.52a4.52,4.52,0,0,1-2.58-1.27,5.22,5.22,0,0,1-.94-1.43,12.3,12.3,0,0,1-.81-2.17,53.82,53.82,0,0,1,5.52-1.47,7.55,7.55,0,0,0-4-3.21,7.84,7.84,0,0,0-3.26-.06c-2,.25-3.55.21-6-3.55,1.17-.45,2.77.12,4,.76s2,1.25,1.71.56c-1.06-3.52-2.47-3.54-3.84-3s-2.9,1.66-4.59.66c.55-1.46,1.08-2.92,1.59-4.4a31,31,0,0,0-5.82-2c-1.93-.46-3.72-.7-5.57-1a78.56,78.56,0,0,1-11-2.18c.91-1.09,2.65-1.92,1.62-3.88a39.53,39.53,0,0,1-13.49-5.35,126.38,126.38,0,0,1-11.95-8.47l-4.58,2.49c-.72-.31-.74-2.18.33-2.61-2.71-2.61-1.05,2.3-3.15,3.18-1.93-.42-1.64-3,0-3.72-6.9,1-18.7.88-23.26-5.23l1.57-.69c-4.13-3.17-8,5.79-11,.79l1.06-.37c-9.52-5.16-21.81-5.66-27.37-14-3.39,4.84-8.9-6-12.31,1.24-4.22-5.85-2.15-6.52-9-12-1.93-1.16-4.93,3.4-7.83,3.14l1.5-3.89c-1.72.9-3.42,1.77-5.13,2.62l.06-5.37h-2.79a3.27,3.27,0,0,1,.69,3.62c-2.23.08-4.25-1.54-5.58-3.44s-2-4.1-1.57-5.1c-3.34-.22-6.76-.37-10.1-.69.9-1.44,2.57-1.26,4.15-1.72-6.35,1.72,1-4.37-4.79-2.8.16,1.12-1.36,2.1-1.81,2.82a7.78,7.78,0,0,0-3.74-4.07,18.68,18.68,0,0,0-5.77-2.24l1.95-2.22a38.22,38.22,0,0,0-4.49-2.49c-.78-.38-1.59-.73-2.4-1.09l-2.43-1.06c-1.66-.69-3.25-1.46-4.89-2.24a37.49,37.49,0,0,1-4.61-2.73,3.91,3.91,0,0,1-.69,4c-.9,1.17-2.26,1.92-3.29,1.47l1.83-4.11c-2.72,1.41.89,2.68-3.4,3.72-2-2,1.47-5.1,3.54-5.39-1.19-.2-2.35-.44-3.51-.7.65-1.16,1.66-1.25,2.82-2.48-1.33.7-1.77-1-2.33-2.55s-1.23-2.92-3.49-1.72l.74-1.1c-1.2-1.15-2.37-2-3.36-2.83s-2-1.48-2.88-2.16-1.76-1.35-2.66-2.08a30,30,0,0,1-2.57-2.59c-3.11,2.27-3.66,0-7.17.41a19.77,19.77,0,0,1-.81-3.33c-.21-1.16-.42-2.33-.57-3.55a27.29,27.29,0,0,0-.72-3.51,15,15,0,0,0-1.28-3.35c-1.58-1.18-2.42-1.13-3.2-.81a3.89,3.89,0,0,1-2.88.56c1.55-.8,1.74-2.33,2-3.49s.58-1.9,2.19-1.12c-.66-1.36-1.19-2.48-1.67-3.53s-1-2-1.49-3c-1.07-2-2.42-4.08-4.7-7.75-1.2,1.18-1.56,2.32-2.83,2.07-.89-1.36.66-3.68,2.34-3.81l.43.31c-3.52-4-1.93-9.89-.29-15.23a35.63,35.63,0,0,0,1.77-7.64,7.22,7.22,0,0,0-2.31-6.2l.39.4c-1.45-2.49-2.71-5-4.09-7.61.26-1.81.94-1.27,1.78-.64s1.93,1.37,3,0a12.81,12.81,0,0,1-2.39-5.64,15.36,15.36,0,0,1,.25-4.87,45.76,45.76,0,0,0,.7-4.56,10,10,0,0,0-1-4.9,7.86,7.86,0,0,0,4.79-4.76,19.11,19.11,0,0,0,.87-6.69,41.55,41.55,0,0,1,.56-7.06,8.18,8.18,0,0,1,3.49-5.32l-2.43-.21c-1.82-2.27,1.89-1.7,2.75-2.76-1.85-.33-2.58,1.26-3.56-.14.55-7.6,4.11-14.7,8.81-20.44l1.79-2.12c.59-.71,1.29-1.31,1.92-2l1.92-1.89c.65-.61,1.36-1.14,2-1.71l2-1.67,2-1.51c.67-.5,1.31-1,2-1.52s1.36-.91,2-1.38c1.79-1.45.2-4.1-.78-6.53a4.7,4.7,0,0,1-.5-3.19,1.77,1.77,0,0,1,1.07-1,6.64,6.64,0,0,1,2.49-.21q.61,2.34,1.32,4.59a19.28,19.28,0,0,1,2-3.47,18.53,18.53,0,0,1,2.77-2.76,19.47,19.47,0,0,1,3.25-2.19l1.73-1c.58-.3,1.21-.56,1.81-.83,4.86-2.25,9.91-3.88,14.56-7.54-.34,1.18,0,2.46-1,2.75,1.56,1.24,3.49.65,5.11-.43s2.8-2.91,2.55-4.18c1.77-.06.91,2.25,2.23,3.36,1.34.71,2.52-.63,3.7-1.72s2.27-2,3.14-.49c.3.48-.48,1.15-.86,1.46,1.22-1.86,7.19-.65,5.2-4.16a11.24,11.24,0,0,0,6.18-.61c1.92-.58,3.8-1,5.63-.07,1-2.19,2.82-1.75,4.46-1.56s3.1.23,3.4-2.73c-.07,3.06,1.87,4.26,4.16,4.32a9.5,9.5,0,0,0,6.49-2.32c-1,1.84,2.42,1.93,1.28,4.48,3.22,0,6.23-1.05,5.76-4.21,2.88,3.73,6,2.43,8.73,1.32s5.24-1.89,6.67,2.88a145.88,145.88,0,0,1,28.36-4.79c-.87,6-9.89-.26-10,6.16,4.3-.91,7.79-2.54,11.23-3.67l1.3-.39c.54-.11,1.25-.2,1.86-.28,1.26-.15,2.52-.26,3.8-.3a31,31,0,0,1,4,.14,44.65,44.65,0,0,1,4.74.77c1.82.62,1.59,1.26.69,1.85s-2.49,1.14-3,1.6c2-.13,3.9-.17,5.77-.13,1.41-.09,2.74-.28,4.11-.36a18.13,18.13,0,0,0,3.87-.42c1.12-.29,2.31-.53,3.37-.83s2-.67,2.85-1.06a6,6,0,0,0,2.52-2.25c.27-.41.51-.89.75-1.34l.35-.69.31-.79c.19-.52.38-1.06.55-1.6l.25-.81c.06-.31.1-.63.14-.95a31.39,31.39,0,0,0,.31-3.9c.51.4.72,1.91.76,3.3a11.23,11.23,0,0,1,.56-1.6,4,4,0,0,0,.44-1.6,2.66,2.66,0,0,0-1.56-2.78c.13.89.28,1.81.39,2.71-1.19.15-2.07-.66-2.83-1.88a35.2,35.2,0,0,1-2.35-4.76c-1.45-3.44-2.88-6.65-3.89-7.18,1.87,1.5,3,1.84,3.71,1.42s1.15-1.5,1.62-2.55,1-2,2-2.32,2.48.09,4.85,2.3c-.41-1.76-1.59-3.91-3.45-3.81.67-2,1.81-2.84,3.75-.18a23.8,23.8,0,0,0-.45-2.83,5.73,5.73,0,0,0-.65-1.29,8.7,8.7,0,0,0-1.38-1.59c-.89-.88-1.55-1.66-1.44-4.18,1.34.06,1.84,1.1,3.38,1.69a20.87,20.87,0,0,1-3.33-4.18,7.07,7.07,0,0,1-.55-5.34c.81.26,1.86-.23,1.83,1.05-.14-3.69-1.94-6.85-3.38-10s-2.6-6.39-1.71-10.56c6,1.92,1.73-2.92,6.62-4l-2.07-4.45-2.2,2.17a7.66,7.66,0,0,0-.89-2.83c-.47-.91-1-1.77-1.55-2.61a14.3,14.3,0,0,1-1.26-2.5,5.17,5.17,0,0,1-.32-2.74c.94.82,1.89,1.69,2.82,2.58l-1.49-3.81c-.25-.62-.49-1.29-.75-1.86l-.8-1.65-.27,2.24-.34,2.42c-1.8-1.68-3.28-1.06-4.34-.8s-1.68.27-1.79-2.29c.4.39.13-.49,0-1.83a6.57,6.57,0,0,1,1-4.56h0c-2.15-1.21-4.42-2.32-4.29-5.35,1.21-1.29,5.39-1.59,6.19-2.43-2.33-.06-3.42-2-4.68-4a13.75,13.75,0,0,0-2-2.72,4.53,4.53,0,0,0-3-1.28,6.48,6.48,0,0,0,4.07-1.33l-3.76.09c.24-2,.57-2.51,2.59-3.2-1.84-5-4.94,4.36-5.33-2.43.48.31.83-.15,1.75.53-.81-3.12-2.74-5.53-4.64-7.84s-3.77-4.53-4.54-7.4c3.45-4.1,3.66,3.65,6.33-.22-2.56-3.37-6.14-6.22-9.51-9.08s-6.51-5.74-8.28-9.31l.38,1.53c-3.27,1.59-3.35-.13-3.3-2.39s.27-5.11-2.27-5.75c1,.49,4-1.27,3.18-1a17.42,17.42,0,0,0-5.62-6.55c-2.57-2-5.69-4-9-6.55l2.07-.31c-.59-3.56-4.43-7.19-5.89-10.43-2.07.34-3-1.39-4.4,1.22.77-7.41-3.62-10.46-8-13.17s-8.89-5-8.79-11.44c.78.82,3,.92,2.42.25l-6.67-4.82c-1.88,2.58-.69,2.06-1.36,4.93a6.49,6.49,0,0,1-5.94-1.64c3.92,1.24,3.68-3.41,3.9-5.76-.53.84-1.66,1.17-2.28,1.93,1.19-6.83-5.07,3.78-6.25-2.88l1.4-.91c-2.08-1-5-.87-6.22-2.85,1.93-3.2,2.77.46,5-1.5-2.37-2.23-9.33.26-8.82-4.33,1.68.25,3.08,1.63,4.76,1.9.77-5.23-.27-4.75-1.47-6.9l.1.23-2.56-5.26.19,1.82c-4.71,1.91-6.53.85-8.15-.68s-3.12-3.46-7.18-3.06c7.81-.64,2.94-1.87,6-4.59-.22-1.81-1-4.17.28-4.61-4.16.69-1.49-4.85-7.45-3.73.76-1.1-2-2,.66-4.05-3.21-1.5-.93,2.26-2.24,3.3-3.4-.08-4.85-3-6.62-6.11a16,16,0,0,0-3.25-4.24,8.39,8.39,0,0,0-5.59-1.88,20.42,20.42,0,0,0-8.36-.73,19.32,19.32,0,0,1-7.93-.49c-.29-2.89,4.23-2.79,4.23-2.79-1.37-3.5-3.51-4.75-6.85-5.37,1.19-.55,1.26-1.7,1.39-3.44-2.19-1.18-4.18,2.88-5.63-.59a19.58,19.58,0,0,1,5.12-2.81c-3.08-.75-6.82-.47-9.94-1.24.68-2.33,3.5-1.8,5.23-2.37-3.33-1.18-8.41-3.33-11.3-.95l1,2.3c-1.1-.56,1.26-2.93,2.38-3,4-.68,2.71,3.41,2.07,4.58l-2.23-.52c-1.33,3.78.58,4.71,3.2,5.14s6,.27,7.62,1.72l-4.77,3.46,6.3-1.16c-.15,1.75-1.54,4.62-3.71,4,.72,4.05,3.33.05,3.51,4.09-.07.56-.34.69-.68.71l3.35.48c-1.18.58-2.05,3.43-3,1.69,1.08,2.89,3.41,3.33,5.33,3.68s3.42.57,2.85,2.85h-.56c6.87,3.16,3.14-2.76,10.52-3-1.19,3.39-2.43,6.79-3.69,10.19l3.21-2.68c.47.61,1.41,1.82.13,2.89,4-.31.8-1.68,3.77-2.63.17,2.62,2.36,3.92,4.06,5.27s2.83,2.8.94,5.51c3.07-1.45-1-4.14,3.38-3.14-3.92,6,4.16,2.12,4.44,6.76-3.23,2-4.24-1.53-4,3.08,5.67-3.16,3.75,5.42,6.57,6.46,1.74-1.73,3.2-1.05,4.79.32s3.22,3.5,5.46,4.58c-.69.48.4,2.52,1.88,5a65.81,65.81,0,0,1,4.1,7.59l-.68.47c4.17-2.81,6.63,1.08,9.56,2.84-2.27,1.91-3.53,2.27-5.69,1.87l2.07,2.24a5,5,0,0,1,4.68.7l-3.26,1.92c1.43,1.44,3.64,2.2,5.66,3.36a9,9,0,0,1,4.65,5.46c2.83-2,4.51-9.51,10-6.73-1.28,1.37-3.58,3.61-5.12,3,.5.2,2.3.28,2.33,1.53l-3.86.36c.53,2.71,2.83-.76,3.87.89-2,1.69-.53,2.32-2.33,3.48-.5-.22-.25-2-1.52-1.87,1.07,1.93,1.49,5,.49,6.94,1-1.12,2.76-2.31,4-1.3,2.75,3-1.59,3.12-1.14,5.82,2.06-.41,2.23,2.79,5.37.34.73,1-.59,2.3-1.14,3.33,2.67.56,6.48,7.42,8.36,2.95l-.12-.6c.13,0,.21.12.35.16h0c3.75,1.5,5.46,4.79,7,8.18.74,1.7,1.43,3.43,2.27,5a13.24,13.24,0,0,0,3.14,4.24l-1.09.78c3.64,2.45,6.07,6.91,10.09,7.73.68,1-.4,3.75-2,4.21,2.59,2,4,1.51,4.67,6.49-3.66-1.36-1.13,2-3.19-1.75,1.26,4-.07,5.89,5.31,7.61-3.66.56-2.1,4.8-.26,5.89l.65-3.65a13.63,13.63,0,0,1,2.93,5.12l-4.4,1.38c-.33,4.82,3.35,6.76,6.59,8.89s5.88,4.41,3,9.05c1.86.3,1.92-.9,2-2.17s.21-2.61,2.29-2.53c.54,1.82-.32,4.29-1.22,6.38s-2,3.83-1.76,4.35c-.22,2.72,1.68,3.16,3.75,3.64s4.2,1,4.26,3.79c1.31-1.14,5.13-3.23,7.85.21a3.31,3.31,0,0,1,0,1.37,3.82,3.82,0,0,1-.58,1.18,5.42,5.42,0,0,1-2.06,1.7c-1.62.8-3.5.93-4.37.15a1,1,0,0,1,0-.87.88.88,0,0,1,.6-.48c-.93-1-2.06-2.18-3.26-.29l1.67,0a19.36,19.36,0,0,0-.68,3.79,2.9,2.9,0,0,1-.55,1.44,1.45,1.45,0,0,1-1.46.43c1,1,1.65,1.16,2.16.78a2.15,2.15,0,0,0,.64-.91,5.49,5.49,0,0,0,.24-.65c.06-.21.11-.43.16-.66a8,8,0,0,0-.19.78c-.07.27-.12.53-.16.78a9,9,0,0,0-.09,1.42,14.71,14.71,0,0,0,.36,2.52,26.76,26.76,0,0,1,.39,2.67,9.15,9.15,0,0,1-.25,3.16c.82-.82,2.64-1.71,2.69-.95-1.44,7.13,3.33,2.82,4.26,7.69-2.33,2.89-5.84-.76-3.64,4.06-1.61,3-4.25.7-5.57-.41,1.56,2.15,1.13,4.21.14,6s-2.41,3.38-2.71,4.62l-1.27-2.31a6.23,6.23,0,0,1,.68,3.66l3.24-1.26c-.6,1.37-.64,2.53-2,2.46,2.07,1.49,5.37-1,8.16,2-1.67,1.8,1.5,5.8-2.77,6.23,1.71-5.78-4.3.43-4.76-4.5a4,4,0,0,1-.23,3.47c-.49.18-.88-.24-1.1-.63a7.39,7.39,0,0,0-.62.91c-.16.27-.27.58-.33.53s-.12.14,0,.21,1,.3,1.8.53a11.94,11.94,0,0,1,2.47.91c.71.4,1.2.91,1.13,1.46a14.61,14.61,0,0,0-3-1c-.77-.16-1.17-.23-.93,0,.07-.36,3.94,1.2,5.63,3.24-1,.36-.67.92-.18,1.69s1.19,1.63,1,2.06a8.46,8.46,0,0,0,.94-.55c2.24,2.13,1.83,3.16,2.35,5.62-1.75-1.64-1-2.69-1.87-2.85.94,1.36,1.12,2.14.91,2.5a.62.62,0,0,1-.58.26,3.28,3.28,0,0,1-1.3-.36,11.65,11.65,0,0,1-1.54-1c-.49-.35-.93-.65-1.29-.86-.74-.43-1.18-.48-1.27.22a12.13,12.13,0,0,1-2.2-3.24,17.81,17.81,0,0,0-1.68-2.79c.14,1-.27,1-.65.57a11.85,11.85,0,0,1-1.14-1.74c-.15-.24-.28-.41-.39-.41s-.3.17-.57.58a15.38,15.38,0,0,1,.66,2.89c0,.6-.3,1.17-1.25,2.65l1.11-.46.52-.23c.16-.08.27-.17.41-.25a9.48,9.48,0,0,0,1.29-1,10.13,10.13,0,0,1-1.38,4.56c1.17.15,2-1,2.6-1.23a.65.65,0,0,1,.65.08c0,.59-.12,1-.16,1.33-.2,1-.13,1.08,1,2.74a3.72,3.72,0,0,0,.32.56l-.23-.29c-1.89-2.34-2.49-1.64-3.57-.86s-2.61,1.67-4-.07l.54-8a2.17,2.17,0,0,0-.49-.59,6.25,6.25,0,0,0-1-.4,6.37,6.37,0,0,0-2.07-.23,15.87,15.87,0,0,0-4.25,1c-2.93,1-6.07,2.11-9.8.83l2.33,1.57c-1.26,3.08-4.72.08-7.27,1.18.42-2.65-1.06-3.72-2-5.45,0,2-5.59-.56-6.61,4.72l-3.21-3.69c-3-.9-4.93.91-6.75,2.8s-3.59,3.84-6.53,3.29c1.89-2.84-.76-4.84,3.32-6.75-2-.12-3.79-.65-3.88,1.2-1.14-1.69-5.62,3.42-7.42.88-.87,1.17-1.17,4-3.41,3.72a2.14,2.14,0,0,1,0-1.31c0,1.31-3.5,1.77-1.55,4.73a8.44,8.44,0,0,0-5.39-3.47,15.05,15.05,0,0,0-3.09-.25c-1.06,0-2.14.16-3.2.29a37,37,0,0,1-6.14.44,7.63,7.63,0,0,1-5.22-2.4c-2.17.69-4.55,1.37-6.88,2.07-1.17.34-2.32.65-3.43.94s-2.18.58-3.17.8c.12-.83-.21-1.32.59-1.17-3-.76-3.51,1.28-4.07,3.33s-1.19,4-4.54,3.33c-2-1.71-1.38-2.47-.46-3s2.08-.6.9-1.19c-1.37-4.23-3.27-3.44-5.44-2.12s-4.54,3.31-7.45,1.48l.9-.81c-2.1-1-3.9.54-5.76,2.4s-3.78,4.18-6.48,5a2.08,2.08,0,0,0-.5-1.23,17.14,17.14,0,0,1-1.95,4,27.81,27.81,0,0,1-2.84,3.59c-2,2.39-4.35,4.38-6.13,6.38-.5-3.77,1-2.85-1.67-5.25-.9.88,0,2,.7,3.26s1.16,2.8-.46,4.44a26.32,26.32,0,0,0-4.16-.61,7.75,7.75,0,0,1-4.47-2l3.6-3c-2.35-1.26-3.59-.27-4.49,1.09-.45.68-.82,1.45-1.22,2.11a3.25,3.25,0,0,1-1.42,1.5l-1.11-1.82a11.59,11.59,0,0,0-3.28,7.33,13.89,13.89,0,0,1-.85,3.43,9.84,9.84,0,0,1-1,1.76,12.28,12.28,0,0,1-1.52,2l1.7.46c.71,3.24-.35,3.35-1.59,3.42a3.17,3.17,0,0,0-1.75.39c-.44.37-.68,1.09-.47,2.47-1.66-.74-3.34-1.45-5-2.15-.14.75-.3,1.79-.47,3s-.25,2.62-.41,4-.33,2.89-.55,4.27a23.69,23.69,0,0,1-.68,3.86,11.67,11.67,0,0,1-1.19-3.39,18.7,18.7,0,0,1-.27-1.87c0-.62,0-1.24,0-1.88.06-2.51.29-5.13.39-7.27-1.61,2.27-4.71,8.2-2.93,10.7.06-1.19-.49-3.07.83-3.57a19.06,19.06,0,0,1,1.43,7.19,17.66,17.66,0,0,1-1.64,6.86c-2.27-1.25-3.9-1.18-5.23-.32s-2.17,2.53-3.07,4.35a52.89,52.89,0,0,1-2.81,5.46,7.3,7.3,0,0,1-4.79,3.28,20.86,20.86,0,0,1-.51,7.19,42.67,42.67,0,0,1-2.2,6.83c-.82,2.29-1.77,4.63-2.55,7.09a36.54,36.54,0,0,0-1.48,7.75c4.22-1.44,4.16-.63,4.13.53s-.08,2.73,4.06,2.82c.29,2.47.07,3.37-.49,3.54-1.85,2.3-3.61,4.66-5.42,7.08-2.51,1.67-1.67-2.46-3.53-2.34-.5,2.73-1.39,3.27-2.47,3.57s-2.35.36-3.5,2.19c3-.65,4.16,2.06,3,5.2,1.27-1.47,2.61-2.92,3.92-4.35,2.06,3.87.35,5.45-1.38,7.13s-3.53,3.41-1.18,7.23l-2.69-2.4a17.74,17.74,0,0,1,.89,4.05,48.94,48.94,0,0,0,.89,5.28,18.15,18.15,0,0,0,1.94,5.14,9,9,0,0,0,4,3.6c-.88.78-3,1.93-3.81.25,0,4.77,2.37,9.86,4.56,14.6s4.13,9.16,3,13.3l-2.14-.24c1,1.67,4.43,2.13,3.09,4.86-.83.12-2.14-.17-2,.69a24.49,24.49,0,0,1,2.69,2.47c1,1.16,1.91,2.53,1.75,3.88l-2.83-1.29c.26,5.1,3,8.29,6.16,10.82s6.78,4.48,9.37,7.59c-2.58,1.45-3.41,4.15-3.17,7a20.6,20.6,0,0,0,.8,4.21c.44,1.31.93,2.52,1.34,3.49l-.77.38c.41.64.84,1.26,1.27,1.86s.92,1.12,1.4,1.64a33.39,33.39,0,0,0,3,2.88c1.06.84,2.14,1.61,3.24,2.32.55.35,1.1.7,1.65,1s1.14.61,1.72.9c1.14.58,2.29,1.13,3.44,1.67s2.36,1,3.53,1.49c2.32,1,4.73,1.92,7.06,3.13a12.08,12.08,0,0,0,3,6.33,30.94,30.94,0,0,0,2.86,2.87c1.05.93,2.21,1.79,3.4,2.68,4.77,3.5,10.21,6.58,13.77,10.54-.84-1.69,2.41-4,4.22-3.71,1.5,2.17,7.46-.83,4.7,3.89l-.68-.45c-.84,5.6,4,6.3,7.24,8l3.57-6.21a11.79,11.79,0,0,0,2.21,4.18,12.35,12.35,0,0,0,3.32,2.67,28.71,28.71,0,0,0,8.17,2.73c5.6,1.16,10.69,2,11.33,7.21,2.76-.83,5.34.22,8.06-.62l-1.5,3.52a71.86,71.86,0,0,0,7.09,3.76,46.8,46.8,0,0,0,8.62,2.75l-2.41,2c4,1.72,8.92-8.46,12.69-7.35l-.82,5.78c7.07,2.45,12.53,9.68,21.16,7.23-.39.75-1.14,2.24-2.35,2.06,3.25,1.29,11.43,8.12,12.84.31-1.63,4.84,7,3,11.5,2.24l-1.85,3.33c4.78-3.39,5.33-4.59,10.2-4.24.87.84-.13,3.16-1.18,1.75,2.78,3.13,3.93-2.35,7.44,1.09l-2.4,1.67c3.46,1.6,3.63.28,6.58-1.61,2.77-.55,6.39,3.48,5.67,6.85,1.22-1.75,4.19-3.61,5.9-1.85a2.51,2.51,0,0,1-1.77,2c4.88,4.74,10.4-.57,13,4.57a3.48,3.48,0,0,0-.2,2.35c-4.53-2.06-8.22-3.71-7.76-3.84-1.3,3.23,2.18,5.28-2.58,8.53,4-1.27,11.2-4.3,14.18-1.28a4.68,4.68,0,0,1,0,1.3l-.53.2a2.52,2.52,0,0,0,2.48.48,8.22,8.22,0,0,0,2.51,2.28c-.77,2.8,3.53,3.28,5.23,4.22,1.47-3.51,3.48-1.89,2.69-5.73.16.38-.52.25-1.81-.15a2,2,0,0,0-.94,0l.26-.25c-1.24-.44-2.84-1.07-4.64-1.81,2.23-1.12,4.43-1.91,5.57.92,2-1.79,4.06-3.59,5.14-4.38A52.24,52.24,0,0,0,1273,926c.42,2.27.46,4.12-.27,5.61a10.19,10.19,0,0,1,3,.73c.9.36,1.73.74,2.63,1.17a9.14,9.14,0,0,0,1.5.64c.56.18,1.08.45,1.74.62a22.67,22.67,0,0,0,4.79.76c.35.25.45.51.38.78a2.06,2.06,0,0,1-.67.82c-.64.52-1.57,1-2,1.4a4.15,4.15,0,0,1-1-.89,1.62,1.62,0,0,0-1.19-.43,3.21,3.21,0,0,1,.89.72c.25.32.48.67.72,1,.5.72.85,1.6,1.31,2.41a8.91,8.91,0,0,0,1.67,2.17,4.67,4.67,0,0,0,2.9,1.07c-1,2.09-2.17,1.57-3,1.29s-1.18-.43-.6,2.07l-1.57-.61a8.92,8.92,0,0,0-1.71,3.51,7,7,0,0,0,0,3.31,17,17,0,0,0,1.15,3.42c.47,1.17,1.07,2.39,1.57,3.64a16.12,16.12,0,0,1,1.55,7.81,8.45,8.45,0,0,1-1.43,3.86,11.2,11.2,0,0,1-3.79,3.41c.88-.59,1.3-.9,2.14-.8-4.54,6-6.56,13.41-9.2,20.71s-5.84,14.44-12.42,19.69c-3.22,3.24-.56,5.12.46,8.55l-4.09-.92c.74,2,1.53,4.13,2.31,6.16.18,3.63-3.19,5.15-6.37,7.14a11.53,11.53,0,0,0-4,3.64,6.83,6.83,0,0,0-.47,6l3-.07c-.75,1.32-1.19,3.69-1.76,5.54s-1.2,3.23-2.63,2.52c.38.46,2.44,1.79.71,2.5l-2.07-.52c.19,1.36.48,2.75.75,4.11l.85,4c-1.42,2.6-3.38,2-5.35,1.65s-3.85-.26-4.93,4.11c.1,1.71,1.35,4.32,2.72,6.26s2.91,3.26,3.7,2.75a3.81,3.81,0,0,1,3.9-2.83l.72,2.89c3.09.6,6.18,1.56,9.14,1.63a10.89,10.89,0,0,0,8.37-3.21l-1.62-2.31-1.48-2.38,3.26-.72-.49,3.4c3.21-1.4.94-3-.48-4.76a5.64,5.64,0,0,0,3.63-.93q-2.43-2.61-4.8-5.43c2.49.18,4.26,3,6.24.78-1.11-1.28-2.54-1.23-3.83-1.28s-2.46-.2-2.87-2c3.37-1.18,5.4.13,3.78-2.9a3.11,3.11,0,0,1,2.88,2.08c-1.29-2.58,1-5.51-1.77-7.71a3,3,0,0,0,2-1.42,16,16,0,0,0,1-2.17c.65-1.4,1.46-2.41,4.17-1.17-1.11-1.15-2.8-5.36-2.2-7.34,2.52,3.14,3.36,1.44,4.43-.53s2.42-4.24,5.66-2.16c-4.65-5.22,1.83-10.33.93-16.49.33.48,1,1.45.51,1.7,1.76-2.34,3.87-2.24,5.79-3.37-4.58-2.67-3.63-7.32-5.48-11,6.18-1,4.62,4.69,9.52,5.84-3.93-1.7-1.08-7.58-4.84-8,4-1.15,2.42-1.5,7-.93-5.79-3.26.09-2.9-2.63-6.73,4.68-2.39,6.12,1.57,6.1-3.46,1.37-.61,2.19.25,2.66,1.28A8.11,8.11,0,0,1,1304.77,1000ZM1264,899.13l0-.07,2.07.64C1265.64,899.58,1265,899.4,1264,899.13Zm-8.11-3.38a26.19,26.19,0,0,0,3.45,1.62c-.22,1.33-1.06,2.45-1.84,2C1258.25,898.79,1256.65,897.28,1255.86,895.75Zm6.13,31.37c-1.42,0-1.51-.91-1.36-1.7a14.46,14.46,0,0,0,2.29.54c.1-.12.24-.23.34-.36A7.18,7.18,0,0,1,1262,927.12Z" transform="translate(-1014.81 -327.41)"/><path class="cls-1" d="M1266.24,923.57c.21,0,.38-.1.62,0a6.74,6.74,0,0,0-.37-1.1l-.93.89Z" transform="translate(-1014.81 -327.41)"/><path class="cls-1" d="M1184.14,454.11l0,.19a1.43,1.43,0,0,1,.19-.63A3.54,3.54,0,0,1,1184.14,454.11Z" transform="translate(-1014.81 -327.41)"/><polygon class="cls-1" points="132.07 520.2 131.72 521.09 132.72 520.58 132.07 520.2"/><path class="cls-1" d="M1163.27,409.43a1.88,1.88,0,0,0,.28-1.13A2.45,2.45,0,0,0,1163.27,409.43Z" transform="translate(-1014.81 -327.41)"/><path class="cls-1" d="M1149.39,393.89l-1.14-3.05A12.8,12.8,0,0,0,1149.39,393.89Z" transform="translate(-1014.81 -327.41)"/><path class="cls-1" d="M1139.15,381.38a7.93,7.93,0,0,0-1.34,1s0,0,0,0Z" transform="translate(-1014.81 -327.41)"/><path class="cls-1" d="M1253.87,613.23a3.75,3.75,0,0,0-.13.95C1253.68,616.68,1253.91,615.12,1253.87,613.23Z" transform="translate(-1014.81 -327.41)"/><path class="cls-1" d="M1241.76,527.27a13.27,13.27,0,0,1,2.53,1.74C1244.1,527.61,1243.8,526.56,1241.76,527.27Z" transform="translate(-1014.81 -327.41)"/><path class="cls-1" d="M1163.86,624.05a.23.23,0,0,1,0-.07h-.49Z" transform="translate(-1014.81 -327.41)"/><path class="cls-1" d="M1245.4,532.47a3.55,3.55,0,0,0-1.11-3.46C1244.46,530.16,1244.49,531.56,1245.4,532.47Z" transform="translate(-1014.81 -327.41)"/><path class="cls-1" d="M1086,336l-.55-.57a1.44,1.44,0,0,1-.43.45Z" transform="translate(-1014.81 -327.41)"/><path class="cls-1" d="M1085,335.91l-1-.12C1084.35,336,1084.65,336.18,1085,335.91Z" transform="translate(-1014.81 -327.41)"/><path class="cls-1" d="M1082,335.54l2,.25C1083.52,335.42,1082.94,334.88,1082,335.54Z" transform="translate(-1014.81 -327.41)"/><path class="cls-1" d="M1102.18,350.07l1-.94A3.68,3.68,0,0,0,1102.18,350.07Z" transform="translate(-1014.81 -327.41)"/><path class="cls-1" d="M1107.55,353.73c-1-1.19-1.26-4.7-3.51-5.35l-.83.75C1105.28,348.13,1105,354.66,1107.55,353.73Z" transform="translate(-1014.81 -327.41)"/><path class="cls-1" d="M1117.08,383.81l-3.26-4.25c-.26,1.71-.64,4-2.67,2.7C1113.26,389.85,1112.26,378.89,1117.08,383.81Z" transform="translate(-1014.81 -327.41)"/><path class="cls-1" d="M1127.63,396.34c-2.5-1.43-1.44,1.58-2.12,2.08C1127.71,398.67,1128.26,398.72,1127.63,396.34Z" transform="translate(-1014.81 -327.41)"/><path class="cls-1" d="M1203.28,485.56l-3,1.7C1201.87,488.75,1201.38,486.53,1203.28,485.56Z" transform="translate(-1014.81 -327.41)"/><polygon class="cls-1" points="215.72 168.03 216.46 165.03 213.19 165.72 215.72 168.03"/><path class="cls-1" d="M1215.05,518.7l-.84-.57c.9.82,1.73,1.66,2.61,2.5Z" transform="translate(-1014.81 -327.41)"/><path class="cls-1" d="M1139.83,591.37l1.05,4.18C1142.35,594.66,1142.33,589.86,1139.83,591.37Z" transform="translate(-1014.81 -327.41)"/><path class="cls-1" d="M1056.07,631.72c-2.26-.62-5.17.7-4.6,3.31C1053.11,633.5,1055.78,632.92,1056.07,631.72Z" transform="translate(-1014.81 -327.41)"/><path class="cls-1" d="M1112.37,870c-.75.19-1.49.38-2.24.55,1.2.14,2.4.21,3.59.31Z" transform="translate(-1014.81 -327.41)"/></svg>